<mxfile host="app.diagrams.net" modified="2023-09-12T20:18:30.349Z" agent="Mozilla/5.0 (Windows NT 10.0; Win64; x64) AppleWebKit/537.36 (KHTML, like Gecko) Chrome/116.0.0.0 Safari/537.36" etag="jJVQVyosjMmglQBYqDnX" version="21.7.4" type="github">
  <diagram name="Page-1" id="wlyn1h-dx8nJcYlliYVW">
    <mxGraphModel dx="1434" dy="790" grid="1" gridSize="10" guides="1" tooltips="1" connect="1" arrows="1" fold="1" page="1" pageScale="1" pageWidth="850" pageHeight="1100" math="0" shadow="0">
      <root>
        <mxCell id="0" />
        <mxCell id="1" parent="0" />
        <mxCell id="pqGhQ2UU31FAY1nagxjz-1" value="&lt;font style=&quot;font-size: 14px;&quot; face=&quot;Times New Roman&quot;&gt;ObjectDetection.py&lt;/font&gt;" style="rounded=1;whiteSpace=wrap;html=1;fillColor=#dae8fc;strokeColor=#6c8ebf;" vertex="1" parent="1">
          <mxGeometry x="110" y="130" width="120" height="50" as="geometry" />
        </mxCell>
        <mxCell id="pqGhQ2UU31FAY1nagxjz-2" value="&lt;font face=&quot;Times New Roman&quot;&gt;&lt;b&gt;&lt;font style=&quot;font-size: 14px;&quot;&gt;YOLO/Supervision&lt;br&gt;PyTorch model&lt;br&gt;OpenCV&lt;/font&gt;&lt;/b&gt;&lt;br&gt;&lt;/font&gt;" style="text;html=1;strokeColor=none;fillColor=none;align=center;verticalAlign=middle;whiteSpace=wrap;rounded=0;" vertex="1" parent="1">
          <mxGeometry x="110" y="50" width="120" height="70" as="geometry" />
        </mxCell>
        <mxCell id="pqGhQ2UU31FAY1nagxjz-3" value="&lt;font face=&quot;Times New Roman&quot;&gt;&lt;font style=&quot;font-size: 14px;&quot;&gt;Display_heading.py&lt;/font&gt;&lt;br&gt;&lt;/font&gt;" style="rounded=1;whiteSpace=wrap;html=1;fillColor=#fff2cc;strokeColor=#d6b656;" vertex="1" parent="1">
          <mxGeometry x="490" y="130" width="120" height="50" as="geometry" />
        </mxCell>
        <mxCell id="pqGhQ2UU31FAY1nagxjz-4" value="&lt;b&gt;&lt;font style=&quot;font-size: 14px;&quot; face=&quot;Times New Roman&quot;&gt;JY901S.py&lt;br&gt;magnetometer reading&lt;/font&gt;&lt;br&gt;&lt;/b&gt;" style="text;html=1;strokeColor=none;fillColor=none;align=center;verticalAlign=middle;whiteSpace=wrap;rounded=0;" vertex="1" parent="1">
          <mxGeometry x="490" y="60" width="120" height="70" as="geometry" />
        </mxCell>
        <mxCell id="pqGhQ2UU31FAY1nagxjz-11" style="edgeStyle=orthogonalEdgeStyle;rounded=0;orthogonalLoop=1;jettySize=auto;html=1;entryX=0;entryY=0.5;entryDx=0;entryDy=0;" edge="1" parent="1" source="pqGhQ2UU31FAY1nagxjz-5" target="pqGhQ2UU31FAY1nagxjz-7">
          <mxGeometry relative="1" as="geometry">
            <Array as="points">
              <mxPoint x="180" y="360" />
            </Array>
          </mxGeometry>
        </mxCell>
        <mxCell id="pqGhQ2UU31FAY1nagxjz-5" value="&lt;font face=&quot;Times New Roman&quot;&gt;&lt;b&gt;&lt;font style=&quot;font-size: 14px;&quot;&gt;-Detects Objects (humans)&lt;br&gt;-Calculates Distance&lt;br&gt;-Calculates degree offset&amp;nbsp;&lt;/font&gt;&lt;/b&gt;&lt;br&gt;&lt;/font&gt;" style="text;html=1;strokeColor=none;fillColor=none;align=center;verticalAlign=middle;whiteSpace=wrap;rounded=0;" vertex="1" parent="1">
          <mxGeometry x="90" y="180" width="170" height="100" as="geometry" />
        </mxCell>
        <mxCell id="pqGhQ2UU31FAY1nagxjz-9" style="edgeStyle=orthogonalEdgeStyle;rounded=0;orthogonalLoop=1;jettySize=auto;html=1;entryX=1;entryY=0.5;entryDx=0;entryDy=0;" edge="1" parent="1" source="pqGhQ2UU31FAY1nagxjz-6" target="pqGhQ2UU31FAY1nagxjz-7">
          <mxGeometry relative="1" as="geometry" />
        </mxCell>
        <mxCell id="pqGhQ2UU31FAY1nagxjz-6" value="&lt;font face=&quot;Times New Roman&quot;&gt;&lt;b&gt;&lt;font style=&quot;font-size: 14px;&quot;&gt;-Pilot Direction&lt;br&gt;-Draws triangle in the heading of detected&amp;nbsp;object distance&lt;br&gt;-prints distance from the detected object distance underneath the trinagle&lt;/font&gt;&lt;/b&gt;&lt;br&gt;&lt;/font&gt;" style="text;html=1;strokeColor=none;fillColor=none;align=center;verticalAlign=middle;whiteSpace=wrap;rounded=0;" vertex="1" parent="1">
          <mxGeometry x="375" y="180" width="350" height="100" as="geometry" />
        </mxCell>
        <mxCell id="pqGhQ2UU31FAY1nagxjz-7" value="&lt;font size=&quot;3&quot;&gt;&lt;b&gt;main.py&lt;/b&gt;&lt;/font&gt;" style="rounded=1;whiteSpace=wrap;html=1;fillColor=#d5e8d4;strokeColor=#82b366;" vertex="1" parent="1">
          <mxGeometry x="305" y="330" width="120" height="60" as="geometry" />
        </mxCell>
      </root>
    </mxGraphModel>
  </diagram>
</mxfile>
